<?xml version="1.0" encoding="UTF-8" standalone="no"?>
<!-- Created with Inkscape (http://www.inkscape.org/) -->

<svg
   xmlns:dc="http://purl.org/dc/elements/1.1/"
   xmlns:cc="http://creativecommons.org/ns#"
   xmlns:rdf="http://www.w3.org/1999/02/22-rdf-syntax-ns#"
   xmlns:svg="http://www.w3.org/2000/svg"
   xmlns="http://www.w3.org/2000/svg"
   xmlns:sodipodi="http://sodipodi.sourceforge.net/DTD/sodipodi-0.dtd"
   xmlns:inkscape="http://www.inkscape.org/namespaces/inkscape"
   width="961.9342"
   height="865.74609"
   id="svg2"
   version="1.1"
   inkscape:version="0.48.1 r9760"
   sodipodi:docname="mp.svg"
   inkscape:export-filename="H:\backups\songbook\_frazil_org\mp.png"
   inkscape:export-xdpi="123.7"
   inkscape:export-ydpi="123.7">
  <defs
     id="defs4" />
  <sodipodi:namedview
     id="base"
     pagecolor="#ffffff"
     bordercolor="#666666"
     borderopacity="1.0"
     inkscape:pageopacity="0.0"
     inkscape:pageshadow="2"
     inkscape:zoom="0.49497475"
     inkscape:cx="822.48356"
     inkscape:cy="321.5349"
     inkscape:document-units="px"
     inkscape:current-layer="layer1"
     showgrid="false"
     inkscape:window-width="1366"
     inkscape:window-height="744"
     inkscape:window-x="0"
     inkscape:window-y="24"
     inkscape:window-maximized="1"
     fit-margin-top="0"
     fit-margin-left="0"
     fit-margin-right="0"
     fit-margin-bottom="0">
    <sodipodi:guide
       position="-17.385325,-123.83166"
       orientation="0,744.09448"
       id="guide2992" />
    <sodipodi:guide
       position="726.70915,-123.83166"
       orientation="-1052.3622,0"
       id="guide2994" />
    <sodipodi:guide
       position="726.70915,928.53054"
       orientation="0,-744.09448"
       id="guide2996" />
    <sodipodi:guide
       position="-17.385325,928.53054"
       orientation="1052.3622,0"
       id="guide2998" />
  </sodipodi:namedview>
  <metadata
     id="metadata7">
    <rdf:RDF>
      <cc:Work
         rdf:about="">
        <dc:format>image/svg+xml</dc:format>
        <dc:type
           rdf:resource="http://purl.org/dc/dcmitype/StillImage" />
        <dc:title />
      </cc:Work>
    </rdf:RDF>
  </metadata>
  <g
     inkscape:label="Layer 1"
     inkscape:groupmode="layer"
     id="layer1"
     transform="translate(-17.385325,-62.784427)">
    <g
       id="g2820"
       transform="matrix(3.6785294,0,0,3.6785294,33.281208,-803.41783)">
      <g
         style="font-size:144px;font-style:normal;font-weight:normal;fill:#000000;fill-opacity:1;stroke:none;font-family:Hobo Std;-inkscape-font-specification:Hobo Std"
         id="text2816">
        <path
           d="m 51.633948,383.61218 c 2.451724,-6.48119 4.618098,-11.211 5.539113,-11.34 0.920958,-0.129 1.418951,-0.77099 1.49398,-1.92597 -0.168027,-1.55698 -0.840017,-4.85093 -2.015974,-9.88188 -1.176013,-5.03091 -1.848004,-14.55278 -2.015974,-28.56563 -0.05703,-10.83281 1.064958,-19.29869 3.365955,-25.39767 2.300939,-6.09885 5.219599,-13.20702 10.70824,-1.22466 4.873169,8.90998 6.00141,-9.55803 9.06684,-2.49729 1.554576,3.58073 2.6968,7.53063 3.061291,12.01584 0.364386,4.48533 0.510163,8.26661 0.437331,11.34386 -0.06761,4.81953 -0.54049,10.55634 -1.418651,17.21044 -0.878262,6.65416 -2.924183,12.60473 -2.634635,18.04244 0.371741,6.9813 -1.351139,8.551 -1.418644,9.53054 0.03895,0.94199 0.536944,1.43398 1.49398,1.47598 0.956938,0.042 2.138922,0.03 3.545955,-0.036 8.855866,-1.93213 11.597049,-3.74991 11.924835,-7.48768 0.769698,-1.61865 2.890611,-6.28783 2.077029,-11.68612 -1.097899,-7.28479 4.305385,-15.75104 4.285901,-32.66553 0.02748,-7.76784 0.500365,-13.30377 1.41865,-16.60779 0.91813,-3.30388 2.11634,-5.28786 3.59462,-5.95192 1.47813,-0.66392 2.56591,2.36309 6.4201,1.12605 3.78749,-0.45292 4.61634,-0.72098 8.04238,2.9839 3.42586,3.70502 5.28583,12.2069 5.57993,25.50567 -0.22809,12.12888 -1.14008,21.89074 -2.73597,29.28562 -1.59607,7.39491 -2.50806,11.79285 -2.73596,13.19383 0.13791,1.22999 1.71581,5.08567 3.20612,7.39926 3.07391,4.772 5.31309,-1.62374 7.06403,-3.8326 1.63656,-2.24822 5.26151,-2.69126 5.26151,-2.69126 1.43365,0.33155 2.61821,1.64102 4.08941,1.07124 1.47098,-0.56977 2.71008,-3.5795 3.71729,-9.02921 1.00698,-5.4497 1.53142,-15.32867 1.57332,-29.63695 0.17055,-6.45854 -0.10678,-13.78111 -0.83199,-21.96772 -0.72544,-8.1865 -4.70206,-14.5903 -6.59192,-21.48773 -2.02789,-7.40119 -3.52119,-9.8702 -14.70769,-10.43748 -2.59505,0.0421 -8.78909,1.2197 -11.00598,2.0176 -2.21705,0.79808 -4.22702,1.72206 -6.02992,2.77196 -1.80305,1.05307 -3.41703,1.75506 -4.841937,2.10597 -1.425053,0.35108 -2.643035,0.51308 -3.653952,0.48599 -1.770044,-0.2759 -3.882014,-1.37989 -6.335919,-3.31195 -2.454026,-1.93189 -5.429985,-3.03587 -8.927885,-3.31196 -3.012011,0.0301 -5.627975,0.36609 -7.847901,1.00799 -2.220014,0.64208 -4.115987,1.41007 -5.687925,2.30397 -1.566017,0.83107 -2.898,1.58106 -3.99595,2.24996 -1.09802,0.66908 -2.070006,1.02308 -2.915961,1.06199 -0.750022,-0.0119 -1.410013,-0.23991 -1.979976,-0.68399 -0.570022,-0.44391 -3.354436,-1.2698 -3.861734,-4.79443 -0.519757,-7.58489 -4.128206,-10.18469 -5.676626,-23.69114 -1.72347,-15.0334 6.294316,-18.85824 6.366347,-19.75832 -0.06903,-1.04089 -0.723021,-1.69489 -1.961976,-1.96198 -1.239011,-0.2669 -2.648992,-0.3809 -4.229944,-0.34199 -4.062507,-0.39723 -6.815875,0.18943 -9.295832,1.75998 -2.479979,1.57074 -4.811972,6.52814 -4.175949,14.8158 4.494224,58.56173 -0.383998,62.36511 -0.239991,82.17546 0.0071,13.88785 0.328879,23.48772 0.965321,28.79963 0.636426,5.31193 2.584083,12.25577 3.796725,12.76045 6.939245,2.61139 4.71241,27.53601 11.676563,7.70543 z"
           id="path2825"
           sodipodi:nodetypes="cscscscsscsscsccscsscscscsccsscsscssscscscscscscscsscscc"
           inkscape:connector-curvature="0" />
        <path
           d="m 183.04026,335.06666 c -3.11099,-0.13496 -5.02496,-1.30494 -5.74193,-3.50995 -0.71702,-2.20493 -1.01101,-4.6349 -0.88199,-7.28991 0.0204,-9.38204 0.58752,-16.15351 1.70131,-20.31441 1.11374,-4.16076 5.03424,-9.94149 6.75986,-8.59044 3.56935,2.79456 0.51178,11.98025 4.17875,10.64463 2.77941,-1.01235 1.51767,-9.91983 3.99945,-11.53961 7.94159,-0.34287 5.0473,2.11327 8.21831,4.97815 3.1709,2.86504 4.82088,6.67498 4.94994,11.42985 -0.16505,6.23698 -4.19479,14.79336 -8.55369,19.60825 -2.17949,2.40749 -7.06467,3.51389 -9.13645,0.21141 -1.86574,-2.97405 -2.20713,4.24155 -5.49356,4.37203 z m -12.32159,97.31139 c 6.06199,0.06 3.61872,-6.68026 7.44365,-14.15987 0.48195,-0.94244 2.131,-5.84344 1.33117,-8.18542 -2.13434,-10.12036 -6.69134,-14.17034 -5.4086,-24.18954 1.83914,-14.365 3.16541,-33.40376 3.05144,-38.68071 -0.048,-1.34996 -0.06,-2.53794 -0.036,-3.56396 0.024,-1.02596 0.37197,-1.56595 1.04399,-1.61998 0.51297,0.06 1.21496,0.62403 2.10597,1.69198 0.89096,1.06802 1.91695,2.28 3.07796,3.63596 1.16396,1.455 2.39994,2.82898 3.70796,4.12194 1.30794,1.29301 4.13115,17.13529 6.19679,5.10044 2.8893,-5.44373 6.13144,-5.40197 11.24165,-9.72371 5.11009,-4.32169 9.60425,-9.89139 13.48249,-16.70912 3.8781,-6.81764 5.91896,-14.04065 6.12259,-21.66905 0.33592,-7.94383 -2.35204,-14.91574 -8.0639,-20.91574 -5.71198,-5.99983 -14.32097,-8.08436 -32.25558,-9.46787 -9.02014,-1.80622 -8.35351,-16.09533 -18.35949,-5.40615 -2.65965,2.84125 -5.79488,8.88619 -6.92019,12.89405 -1.12532,4.00803 0.51621,61.73023 0.63888,71.73802 l -0.71429,20.83545 c -0.003,8.08703 -0.13048,21.64187 0.33085,24.95026 0.46132,3.3084 0.71504,8.58121 1.18281,11.31656 0.55808,3.26342 1.67057,10.79985 5.05292,7.90493 9.97258,-9.90297 1.20125,9.97526 5.74693,10.10153 z"
           id="path2827"
           sodipodi:nodetypes="cscssscscssccscscscscscsscscssccsscc"
           inkscape:connector-curvature="0" />
      </g>
    </g>
    <g
       transform="matrix(4.2986637,0,0,-3.1478571,33.281208,-803.41783)"
       style="font-size:43.44551468px;font-style:normal;font-weight:normal;fill:#000000;fill-opacity:1;stroke:none;font-family:Hobo Std;-inkscape-font-specification:Hobo Std"
       id="text2829">
      <path
         d="m 109.86966,-470.33323 c 0.81176,-4.21202 -1.15932,-5.41008 -3.36473,-6.271 -4.60425,1.41139 -0.67626,1.96287 -2.53175,13.52883 -0.39507,0.79874 -0.82014,12.55111 2.30258,14.38028 4.01795,-5.32664 1.1297,-13.06332 3.5939,-21.63811 z m -2.83741,-11.43348 c 0.89966,-0.003 1.42667,-2.22947 2.07654,-2.71555 0.64986,-0.48601 0.99018,-1.19742 1.02096,-2.13423 -0.0308,-0.94218 -0.3711,-1.67531 -1.02096,-2.1994 -0.64987,-0.52402 -1.10048,-0.79012 -2.00014,-0.7983 -0.89968,0.008 -1.13418,0.27428 -1.78404,0.7983 -0.64987,0.52409 -0.99018,1.25722 -1.02095,2.1994 0.0308,0.93681 0.37109,1.64822 1.02095,2.13423 0.64986,0.48607 0.80796,2.71286 1.70764,2.71555 z"
         id="path2834"
         sodipodi:nodetypes="cccccccscscscc"
         inkscape:connector-curvature="0" />
    </g>
    <path
       style="fill:#000000"
       d="m 60.171812,845.23937 c 68.634588,0 -46.657259,0 21.977367,0 l 39.867021,-3.94135 c 65.68801,-0.65687 62.3062,-14.73888 83.08974,-13.09089 25.25465,16.513 20.91855,22.79254 41.83764,18.34599 l 46.36452,0.65687 49.06333,2.6275 c 4.59817,0 43.1514,-7.88259 48.40645,-7.22572 l 36.5826,-1.97062 34.61202,-1.31375 c 6.56879,0 29.35691,-7.88254 35.26886,-7.88254 9.19632,-1.31376 37.89636,13.79451 37.89636,13.79451 l 32.82005,3.71586 c 10.21866,0.92891 14.24066,1.85793 43.96766,-8.36073 32.51393,-26.01114 54.79195,-54.54269 76.48159,-22.29528 10.28028,26.44939 32.19721,3.7159 47.98969,19.50835 22.29523,5.57377 41.18082,0 41.18082,0 3.71585,-8.36071 45.82559,7.4318 45.82559,7.4318 21.36631,0 41.18078,0 41.18078,0 109.8154,0 -37.86627,0 71.94915,0 27.77947,0 42.7865,16.87849 42.7865,37.84424 l 0,7.60257 c 0,20.96575 -15.00703,37.84434 -42.7865,37.84434 l -876.361238,0 c -27.77952,0 -42.786487,-16.87859 -42.786487,-37.84434 l 0,-7.60257 c 0,-20.96575 15.006967,-37.84424 42.786487,-37.84424 z"
       id="rect2838"
       sodipodi:nodetypes="ccccccccccccccccccccccccccc"
       inkscape:connector-curvature="0" />
    <path
       style="font-size:43.44551468px;font-style:normal;font-weight:normal;fill:#000000;fill-opacity:1;stroke:none;font-family:Hobo Std;-inkscape-font-specification:Hobo Std"
       d="m 205.82694,665.46037 c 3.8673,0.0113 6.13277,7.01806 8.92633,8.54818 2.79353,1.52989 4.25645,3.7693 4.38876,6.71823 -0.13238,2.96586 0.26265,7.5961 -2.53082,9.24585 -2.79355,1.64952 -4.2661,1.55822 -8.13342,1.58397 -3.86741,-0.0258 -5.33997,-2.25689 -8.13348,-3.90642 -2.7936,-1.64974 -4.25646,-3.95754 -4.38874,-6.9234 0.13239,-2.94893 1.59518,-5.18834 4.38874,-6.71823 2.79351,-1.5301 1.61521,-8.53971 5.48263,-8.54818 z"
       id="path2834-1"
       sodipodi:nodetypes="ccscscscc"
       inkscape:connector-curvature="0" />
  </g>
</svg>
